<?xml version="1.0" encoding="UTF-8"?>
<svg id="Layer_1" data-name="Layer 1" xmlns="http://www.w3.org/2000/svg" viewBox="0 0 1089.21 233.15">
  <defs>
    <style>
      .cls-1 {
        fill: #231f20;
      }

      .cls-2 {
        fill: #fff;
      }

      .cls-3 {
        fill: #26a073;
      }
    </style>
  </defs>
  <g>
    <path class="cls-1" d="M153.58,69.52v56.58c0,19.1-7.44,29.38-22.84,29.38s-22.66-10.28-22.66-29.38v-56.58h-29.04v58.2c0,36.59,22.84,52.98,51.35,52.98s51.34-16.39,51.34-52.98v-58.2h-28.15Z"/>
    <path class="cls-1" d="M277.86,69.52v62.17l-48.15-62.17h-21.78v108.12h25.32v-62.17l48.15,62.17h21.78v-108.12h-25.32Z"/>
    <path class="cls-1" d="M386.21,90.24c12.75,0,24.08,5.23,32.58,12.62v-24.87c-8.85-6.85-22.84-10.81-37.36-10.81-30.63,0-57.19,21.44-57.19,56.4s26.56,56.4,57.19,56.4c14.52,0,28.51-3.96,37.36-10.81v-24.87c-8.5,7.39-19.83,12.62-32.58,12.62-17.88,0-31.51-11.9-31.51-33.34s13.63-33.34,31.51-33.34Z"/>
    <path class="cls-1" d="M499.17,69.52h-24.26l-44.62,108.12h27.8l8.85-23.07h39.31l9.03,23.07h28.5l-44.61-108.12ZM473.85,135.65l12.75-34.06,12.74,34.06h-25.49Z"/>
    <path class="cls-1" d="M596.72,107.72c-12.04-3.06-15.23-5.95-15.23-10.99,0-5.41,4.78-8.65,12.39-8.65,10.27,0,21.43,4.32,29.39,9.37l5.85-19.46c-8.33-5.95-20.9-11-34.88-11-23.73,0-38.95,12.8-38.95,32.44,0,16.04,8.32,29.2,32.57,34.96,15.23,3.97,19.83,6.49,19.83,13.52,0,7.57-6.73,10.99-15.4,10.99-13.99,0-25.5-7.57-33.46-14.42l-6.38,21.27c8.33,7.03,21.6,14.05,39.84,14.05,21.6,0,41.78-9.55,41.78-34.96,0-19.46-10.8-30.81-37.35-37.12Z"/>
    <path class="cls-1" d="M682.76,155.66v-24.15h36.29v-21.81h-36.29v-18.2h45.15v-21.98h-73.83v108.12h76.97v-22.07c-16.1.03-32.19.06-48.29.09Z"/>
  </g>
  <g>
    <path class="cls-3" d="M867.63,69.79l-28.85,68.66-28.86-68.66h-32.05v108.12h24.61v-58.93c0-2.52-.71-10.81-.71-11.53.36,1.26,2.84,9.01,3.9,11.53l23.9,58.93h17l23.9-58.93,3.89-11.53c-.17.72-.71,9.01-.71,11.53v58.93h25.32v-108.12h-31.34Z"/>
    <path class="cls-3" d="M966.6,69.79h-41.43v51.48h.13v-6.34h6.87v6.85h-7v3.45h7v6.85h-7v3.45h7v6.85h-7v35.53h41.43c43.73,0,61.61-24.33,61.61-54.06s-17.88-54.06-61.61-54.06ZM943.23,132.08h-6.86v-6.85h6.86v6.85ZM943.6,122.27h-7.34v-7.34h7.34v7.34ZM964.3,155.39h-10.45v-13.01h-6.07v-6.85h6.07v-3.45h-6.15v-6.85h6.15v-3.45h-6.15v-6.85h6.15v-22.62h10.45c23.9,0,34.7,9.91,34.7,31.54s-10.8,31.54-34.7,31.54Z"/>
  </g>
  <rect class="cls-3" x="771.92" y="171.56" width="6.34" height="6.34"/>
  <rect class="cls-3" x="751.12" y="171.56" width="6.84" height="6.34"/>
  <rect class="cls-3" x="761.44" y="171.56" width="6.34" height="6.34"/>
  <rect class="cls-3" x="771.84" y="162.03" width="6.34" height="6.34"/>
  <rect class="cls-3" x="751.04" y="162.03" width="6.84" height="6.34"/>
  <rect class="cls-3" x="761.36" y="162.03" width="6.34" height="6.34"/>
  <rect class="cls-3" x="771.84" y="152.49" width="6.34" height="6.34"/>
  <rect class="cls-3" x="751.04" y="152.49" width="6.84" height="6.34"/>
  <rect class="cls-3" x="761.36" y="152.49" width="6.34" height="6.34"/>
  <rect class="cls-2" x="924.78" y="135.53" width=".39" height="6.85"/>
  <rect class="cls-2" x="936.46" y="135.53" width="6.85" height="6.85"/>
  <rect class="cls-2" x="924.78" y="125.23" width=".39" height="6.85"/>
  <polygon class="cls-2" points="925.3 114.93 925.3 121.27 925.17 121.27 925.17 121.78 924.78 121.78 924.78 114.93 925.3 114.93"/>
  <rect class="cls-3" x="918.96" y="125.23" width="6.34" height="6.85"/>
  <rect class="cls-3" x="918.96" y="135.53" width="6.34" height="6.85"/>
  <rect class="cls-3" x="918.96" y="114.93" width="6.34" height="6.85"/>
  <rect class="cls-3" x="909.31" y="131.17" width="6.34" height="6.34"/>
  <rect class="cls-3" x="909.31" y="120.68" width="6.34" height="6.34"/>
</svg>