<?xml version="1.0" encoding="UTF-8"?>
<svg id="Layer_1" data-name="Layer 1" xmlns="http://www.w3.org/2000/svg" viewBox="0 0 1089.21 212.04">
  <defs>
    <style>
      .cls-1 {
        fill: #fff;
      }

      .cls-2 {
        fill: #26a073;
      }
    </style>
  </defs>
  <g>
    <path class="cls-1" d="M64.14,114.05v-58.21h29.04v56.58c0,19.1,7.44,29.37,22.66,29.37s22.84-10.27,22.84-29.37v-56.58h28.15v58.21c0,36.58-22.66,52.98-51.34,52.98s-51.34-16.4-51.34-52.98Z"/>
    <path class="cls-1" d="M193.03,55.84h21.78l48.16,62.17v-62.17h25.32v108.12h-21.78l-48.16-62.17v62.17h-25.32V55.84Z"/>
    <path class="cls-1" d="M309.34,109.9c0-34.96,26.56-56.4,57.19-56.4,14.52,0,28.5,3.96,37.36,10.81v24.87c-8.5-7.39-19.83-12.61-32.58-12.61-17.88,0-31.51,11.71-31.51,33.34s13.63,33.34,31.51,33.34c12.75,0,24.08-5.23,32.58-12.61v24.87c-8.85,6.85-22.84,10.81-37.36,10.81-30.63,0-57.19-21.44-57.19-56.4Z"/>
    <path class="cls-1" d="M460.01,55.84h24.26l44.62,108.12h-28.5l-9.03-23.07h-39.3l-8.85,23.07h-27.8l44.62-108.12ZM484.44,121.98l-12.75-34.06-12.75,34.06h25.49Z"/>
    <path class="cls-1" d="M537.55,152.07l6.37-21.26c7.97,6.85,19.48,14.42,33.46,14.42,8.68,0,15.4-3.42,15.4-10.99,0-7.03-4.6-9.55-19.83-13.52-24.26-5.77-32.58-18.92-32.58-34.96,0-19.64,15.23-32.44,38.95-32.44,13.99,0,26.56,5.05,34.88,10.99l-5.84,19.46c-7.97-5.05-19.12-9.37-29.39-9.37-7.61,0-12.39,3.24-12.39,8.65,0,5.05,3.19,7.93,15.23,10.99,26.56,6.31,37.36,17.66,37.36,37.12,0,25.41-20.18,34.96-41.78,34.96-18.24,0-31.51-7.03-39.83-14.06Z"/>
    <path class="cls-1" d="M639.17,55.84h73.83v21.98h-45.15v18.2h36.29v21.81h-36.29v24.15c16.1-.03,32.2-.06,48.29-.09v22.07c-25.66,0-51.32,0-76.98,0V55.84ZM710.34,177.11"/>
  </g>
  <g>
    <path class="cls-2" d="M744.93,55.75h32.05l28.86,68.66,28.86-68.66h31.34v108.12h-25.32v-58.93c0-2.52.53-10.81.71-11.53l-3.9,11.53-23.9,58.93h-17l-23.9-58.93c-1.06-2.52-3.54-10.27-3.89-11.53,0,.72.71,9.01.71,11.53v58.93h-24.61V55.75Z"/>
    <path class="cls-2" d="M892.23,55.75h41.43c43.73,0,61.61,24.33,61.61,54.06s-17.88,54.06-61.61,54.06h-41.43V55.75ZM931.35,141.35c23.9,0,34.7-9.91,34.7-31.54s-10.8-31.54-34.7-31.54h-10.45v63.07h10.45Z"/>
  </g>
  <rect class="cls-2" x="716.24" y="141.78" width="28.69" height="22.09"/>
  <rect class="cls-2" x="721.78" y="136.53" width="5.55" height="5.55"/>
  <rect class="cls-2" x="732.97" y="136.23" width="5.98" height="5.55"/>
  <rect class="cls-1" x="739.38" y="141.73" width="5.55" height="5.55"/>
  <rect class="cls-1" x="721.78" y="141.78" width="5.55" height="5.55"/>
  <rect class="cls-1" x="727.42" y="147.56" width="5.55" height="5.55"/>
  <rect class="cls-2" x="738.95" y="141.73" width="5.98" height="16.65"/>
  <rect class="cls-2" x="716.24" y="141.78" width="5.55" height="5.55"/>
  <rect class="cls-1" x="722.15" y="153.1" width="5.27" height="5.27"/>
  <rect class="cls-1" x="738.95" y="147.42" width="5.98" height="5.83"/>
  <rect class="cls-1" x="716.07" y="158.38" width="6.19" height="5.69"/>
</svg>